<svg width="268" height="96" viewBox="0 0 268 96" fill="none" xmlns="http://www.w3.org/2000/svg">
  <g fill="#8F8B8D">
    <path d="M104.584 20.8229H107.834L111.451 31.7845H111.489L115.125 20.8229H118.068L112.952 34.7324H109.701L104.584 20.8229Z"/>
    <path d="M122.377 20.8229V34.7324H119.491V20.8229H122.377Z"/>
    <path d="M127.166 31.7085C127.166 32.5174 127.762 33.095 128.57 33.095C130.166 33.095 130.224 31.3228 130.224 30.1865C129.223 30.1677 127.166 30.1481 127.166 31.7085ZM124.838 27.7973C124.856 26.5838 125.376 25.8332 126.145 25.3892C126.935 24.9275 127.953 24.774 128.992 24.774C130.935 24.774 133.109 25.4862 133.109 28.3955V33.6736C133.129 34.1553 133.205 34.4438 133.243 34.7336H130.647C130.589 34.2896 130.55 33.8475 130.55 33.443H130.512C129.858 34.5598 128.858 35.0215 127.549 35.0215C125.741 35.0215 124.396 33.9822 124.396 32.0941C124.396 31.4195 124.703 29.782 126.454 29.0314C127.608 28.5298 129.069 28.4726 130.224 28.5103V27.6053C130.224 27.2009 129.916 26.4107 128.896 26.4107C127.896 26.4107 127.569 27.3552 127.608 27.7973H124.838Z"/>
    <path d="M137.862 31.7085C137.862 32.5174 138.458 33.095 139.266 33.095C140.862 33.095 140.92 31.3228 140.92 30.1865C139.92 30.1677 137.862 30.1481 137.862 31.7085ZM135.534 27.7973C135.553 26.5838 136.073 25.8332 136.842 25.3892C137.631 24.9275 138.65 24.774 139.688 24.774C141.632 24.774 143.805 25.4862 143.805 28.3955V33.6736C143.825 34.1553 143.902 34.4438 143.939 34.7336H141.343C141.286 34.2896 141.247 33.8475 141.247 33.443H141.209C140.554 34.5598 139.554 35.0215 138.246 35.0215C136.438 35.0215 135.092 33.9822 135.092 32.0941C135.092 31.4195 135.399 29.782 137.15 29.0314C138.304 28.5298 139.766 28.4726 140.92 28.5103V27.6053C140.92 27.2009 140.612 26.4107 139.593 26.4107C138.593 26.4107 138.266 27.3552 138.304 27.7973H135.534Z"/>
    <path d="M149.151 26.1981H149.189C149.784 25.3504 150.689 24.7729 152.152 24.7729C153.228 24.7729 154.825 25.5423 155.229 26.6022C156.133 25.3504 157.037 24.7729 158.499 24.7729C159.576 24.7729 161.173 25.5423 161.577 26.6022C161.884 27.3345 161.865 28.1441 161.865 28.9136V34.7324H158.98V28.9136C158.96 27.8732 158.672 26.6993 157.249 26.6993C156.344 26.6993 155.555 27.5082 155.518 28.9136V34.7324H152.633V28.9136C152.613 27.8732 152.324 26.6993 150.901 26.6993C149.997 26.6993 149.208 27.5082 149.17 28.9136V34.7324H146.284V25.0607H149.151V26.1981Z"/>
    <path d="M169.271 27.6441C169.232 26.9883 168.617 26.7005 167.962 26.7005C167.174 26.7005 166.808 26.9311 166.808 27.5666C166.808 29.089 172.329 28.2225 172.329 31.8439C172.329 33.9622 169.752 35.0215 167.962 35.0215C165.713 35.0215 163.75 34.1353 163.712 31.9211H166.386C166.443 32.6717 167.116 33.095 167.962 33.095C168.751 33.095 169.348 32.7676 169.348 32.017C169.348 31.2456 167.962 30.9183 167.386 30.784C165.54 30.3408 163.827 29.9363 163.827 27.6825C163.827 25.6601 166.27 24.774 167.962 24.774C170.002 24.774 171.733 25.5058 171.867 27.6441H169.271Z"/>
    <path d="M179.909 28.7416C179.909 27.6825 179.621 26.7005 178.217 26.7005C176.89 26.7005 176.602 27.6825 176.563 28.7416H179.909ZM176.563 30.6681C176.563 31.9211 176.736 33.095 178.217 33.095C179.217 33.095 179.717 32.73 179.986 31.8439H182.583C182.334 34.2324 180.467 35.0215 178.217 35.0215C174.908 35.0215 173.581 33.1533 173.581 29.9174C173.581 27.0082 175.273 24.774 178.217 24.774C180.025 24.774 181.525 25.3892 182.334 27.085C182.602 27.6242 182.737 28.2028 182.814 28.8188C182.89 29.4163 182.89 30.0323 182.89 30.6681H176.563Z"/>
  </g>
  <g fill="#231F20">
    <path d="M108.642 47.0681H108.68L113.297 41.0578H116.778L111.681 47.2804L117.221 54.9678H113.508L108.68 47.8775H108.642V54.9678H105.66V41.0578H108.642V47.0681Z"/>
    <path d="M120.758 51.9415C120.758 52.7505 121.354 53.3284 122.163 53.3284C123.759 53.3284 123.816 51.5562 123.816 50.4196C122.816 50.4004 120.758 50.3812 120.758 51.9415ZM118.431 48.0306C118.45 46.8173 118.969 46.0659 119.738 45.6226C120.527 45.1606 121.546 45.0075 122.585 45.0075C124.528 45.0075 126.702 45.7189 126.702 48.6289V53.9064C126.721 54.388 126.799 54.6769 126.836 54.9671H124.24C124.182 54.5231 124.143 54.081 124.143 53.6765H124.105C123.451 54.7928 122.451 55.2549 121.142 55.2549C119.334 55.2549 117.988 54.2149 117.988 52.3268C117.988 51.6526 118.296 50.0151 120.046 49.2648C121.201 48.7629 122.662 48.7061 123.816 48.7437V47.838C123.816 47.4335 123.508 46.6438 122.489 46.6438C121.489 46.6438 121.162 47.5886 121.201 48.0306H118.431Z"/>
    <path d="M132.05 46.4327H132.088C132.684 45.585 133.588 45.0082 135.05 45.0082C136.127 45.0082 137.723 45.7776 138.127 46.8372C139.031 45.585 139.935 45.0082 141.398 45.0082C142.475 45.0082 144.072 45.7776 144.476 46.8372C144.783 47.5694 144.764 48.3795 144.764 49.1489V54.9678H141.878V49.1489C141.859 48.1085 141.57 46.9346 140.148 46.9346C139.243 46.9346 138.455 47.7436 138.416 49.1489V54.9678H135.531V49.1489C135.512 48.1085 135.223 46.9346 133.799 46.9346C132.896 46.9346 132.107 47.7436 132.068 49.1489V54.9678H129.183V45.296H132.05V46.4327Z"/>
    <path d="M151.979 53.3288C153.825 53.3288 154.056 51.6145 154.056 50.1309C154.056 48.6477 153.825 46.9342 151.979 46.9342C150.421 46.9342 149.901 48.8016 149.901 50.1309C149.901 51.4603 150.421 53.3288 151.979 53.3288ZM149.901 46.4131H149.94C150.478 45.6037 151.517 45.0078 152.517 45.0078C155.518 45.0078 157.037 47.5302 157.037 50.1309C157.037 52.6161 155.71 55.2552 152.882 55.2552C151.632 55.2552 150.555 54.7352 149.94 53.5997H149.901V58.666H147.016V47.2221C147.016 46.5861 146.959 45.9315 146.92 45.2956H149.844L149.901 46.4131Z"/>
    <path d="M164.944 48.9747C164.944 47.9152 164.656 46.9339 163.251 46.9339C161.924 46.9339 161.636 47.9152 161.598 48.9747H164.944ZM161.598 50.9012C161.598 52.1545 161.77 53.3284 163.251 53.3284C164.252 53.3284 164.751 52.9635 165.021 52.0774H167.618C167.368 54.4651 165.502 55.2549 163.251 55.2549C159.943 55.2549 158.615 53.3864 158.615 50.1509C158.615 47.2409 160.308 45.0075 163.251 45.0075C165.06 45.0075 166.56 45.6226 167.368 47.3181C167.637 47.8577 167.772 48.4356 167.849 49.0519C167.925 49.649 167.925 50.2657 167.925 50.9012H161.598Z"/>
    <path d="M175.639 48.9747C175.639 47.9152 175.351 46.9339 173.947 46.9339C172.62 46.9339 172.331 47.9152 172.292 48.9747H175.639ZM172.292 50.9012C172.292 52.1545 172.466 53.3284 173.947 53.3284C174.947 53.3284 175.446 52.9635 175.716 52.0774H178.313C178.063 54.4651 176.197 55.2549 173.947 55.2549C170.638 55.2549 169.311 53.3864 169.311 50.1509C169.311 47.2409 171.003 45.0075 173.947 45.0075C175.754 45.0075 177.255 45.6226 178.063 47.3181C178.332 47.8577 178.467 48.4356 178.544 49.0519C178.62 49.649 178.62 50.2657 178.62 50.9012H172.292Z"/>
    <path d="M182.853 45.296L182.912 47.049H182.95C183.565 45.527 184.796 45.1417 186.239 45.1813V47.7436H184.988C184.507 47.7812 183.873 48.051 183.584 48.4563C183.277 48.9946 183.219 49.5342 183.2 50.1701V54.9678H180.333L180.315 47.2225C180.315 46.818 180.256 46.0086 180.218 45.296H182.853Z"/>
    <path d="M188.736 45.2953V43.388L191.622 42.3476V45.2953H193.795V47.2217H191.622V51.7105C191.622 52.9819 191.814 53.3284 192.814 53.3284C193.121 53.3284 193.43 53.2901 193.738 53.2709V54.9671C193.411 55.1213 191.871 55.2549 191.467 55.2549C189.217 55.2549 188.736 54.081 188.736 51.9799V47.2217H186.793V45.2953H188.736Z"/>
    <path d="M200.142 53.3284C201.911 53.3284 202.199 51.6729 202.199 50.1306C202.199 48.5894 201.911 46.9339 200.142 46.9339C198.372 46.9339 198.084 48.5894 198.084 50.1306C198.084 51.6729 198.372 53.3284 200.142 53.3284ZM200.142 55.2549C196.987 55.2549 195.102 53.1745 195.102 50.1306C195.102 47.0871 196.987 45.0075 200.142 45.0075C203.297 45.0075 205.182 47.0871 205.182 50.1306C205.182 53.1745 203.297 55.2549 200.142 55.2549Z"/>
    <path d="M213.144 48.9747C213.144 47.9152 212.855 46.9339 211.451 46.9339C210.124 46.9339 209.836 47.9152 209.797 48.9747H213.144ZM209.797 50.9012C209.797 52.1545 209.97 53.3284 211.451 53.3284C212.451 53.3284 212.952 52.9635 213.221 52.0774H215.818C215.568 54.4651 213.702 55.2549 211.451 55.2549C208.143 55.2549 206.815 53.3864 206.815 50.1509C206.815 47.2409 208.508 45.0075 211.451 45.0075C213.259 45.0075 214.76 45.6226 215.568 47.3181C215.837 47.8577 215.972 48.4356 216.048 49.0519C216.125 49.649 216.125 50.2657 216.125 50.9012H209.797Z"/>
    <path d="M220.359 45.296L220.418 47.049H220.456C221.071 45.527 222.302 45.1417 223.744 45.1813V47.7436H222.494C222.013 47.7812 221.379 48.051 221.09 48.4563C220.782 48.9946 220.724 49.5342 220.705 50.1701V54.9678H217.839L217.82 47.2225C217.82 46.818 217.762 46.0086 217.724 45.296H220.359Z"/>
    <path d="M228.305 45.296V54.9678H225.419V45.296H228.305ZM228.4 41.0578V43.543H225.322V41.0578H228.4Z"/>
    <path d="M235.651 47.8768C235.612 47.2217 234.997 46.9339 234.343 46.9339C233.554 46.9339 233.189 47.1637 233.189 47.7997C233.189 49.3216 238.709 48.4555 238.709 52.0774C238.709 54.1953 236.132 55.2549 234.343 55.2549C232.092 55.2549 230.13 54.3688 230.092 52.1545H232.766C232.823 52.9048 233.496 53.3284 234.343 53.3284C235.132 53.3284 235.728 53.0011 235.728 52.2497C235.728 51.4791 234.343 51.1518 233.766 51.0167C231.919 50.5738 230.207 50.1694 230.207 47.9152C230.207 45.8935 232.65 45.0075 234.343 45.0075C236.382 45.0075 238.113 45.7392 238.248 47.8768H235.651Z"/>
    <path d="M241.115 45.2953V43.388L244 42.3476V45.2953H246.174V47.2217H244V51.7105C244 52.9819 244.192 53.3284 245.193 53.3284C245.5 53.3284 245.808 53.2901 246.116 53.2709V54.9671C245.789 55.1213 244.25 55.2549 243.846 55.2549C241.596 55.2549 241.115 54.081 241.115 51.9799V47.2217H239.172V45.2953H241.115Z"/>
  </g>
  <path d="M253.771 48.9747C253.771 47.9152 253.482 46.9339 252.078 46.9339C250.752 46.9339 250.463 47.9152 250.425 48.9747H253.771ZM250.425 50.9012C250.425 52.1545 250.597 53.3284 252.078 53.3284C253.078 53.3284 253.579 52.9635 253.848 52.0774H256.445C256.196 54.4651 254.329 55.2549 252.078 55.2549C248.77 55.2549 247.442 53.3864 247.442 50.1509C247.442 47.2409 249.135 45.0075 252.078 45.0075C253.886 45.0075 255.387 45.6226 256.196 47.3181C256.464 47.8577 256.599 48.4356 256.676 49.0519C256.752 49.649 256.752 50.2657 256.752 50.9012H250.425Z" fill="#231F20"/>
  <path d="M261.465 46.4135L261.503 46.471C262.1 45.585 263.005 45.0082 264.465 45.0082C265.427 45.0082 267.294 45.7196 267.639 47.1261C267.793 47.7232 267.832 48.34 267.832 48.6673V54.9678H264.946V49.1489C264.928 48.1085 264.639 46.9346 263.216 46.9346C262.311 46.9346 261.523 47.7436 261.485 49.1489V54.9678H258.6V45.296H261.465V46.4135Z" fill="#231F20"/>
  <path d="M75.6062 60.6617L75.5234 60.8938C77.8452 72.0085 76.7045 79.1604 75.9255 82.207C84.518 75.1541 90.002 64.4431 90.002 52.449C90.002 50.1775 89.7952 47.9561 89.4182 45.7927C86.479 50.6125 82.3453 56.1808 75.6062 60.6617Z" fill="#8F8B8D"/>
  <path d="M65.3438 64.9667L74.0527 60.6179C65.1832 26.7914 53.1139 17.0184 46.5267 14.3339C27.7249 16.8238 13.209 32.9304 13.209 52.4497C13.209 57.9513 14.3714 63.1784 16.4501 67.9117C28.1856 71.7477 44.1818 72.4656 65.3438 64.9667Z" fill="#8F8B8D"/>
  <path d="M71.8356 85.1344C73.664 80.4582 74.645 73.2802 74.8152 61.4777C74.8152 61.4777 54.8324 80.6388 18.8516 72.5153C25.6024 83.5435 37.7464 90.9043 51.6095 90.9043C59.0334 90.9043 65.9611 88.7886 71.8356 85.1344Z" fill="#F9A72B"/>
  <path d="M88.1976 40.7667C83.6772 26.5448 71.1299 15.9203 55.8838 14.2279C70.7702 31.469 74.9914 59.2031 74.9914 59.2031C74.9914 59.2031 88.917 48.5816 88.1976 40.7667Z" fill="#F9A72B"/>
  <path d="M35.917 2.55492C51.3016 4.36483 65.1646 25.6661 70.9112 45.7697C77.1887 67.7455 74.8055 86.983 63.5479 96C75.4172 86.4938 79.2123 67.9845 72.7184 45.253C66.8006 24.5475 52.3384 2.59152 36.1392 0.682411L35.917 2.55492Z" fill="#231F20"/>
  <path d="M54.1911 67.7513C35.1941 72.2382 11.4753 70.2121 2.90124 57.656L1.34961 58.7193C10.4027 71.9786 35.0027 74.2193 54.623 69.5838C71.7888 65.5296 90.0798 54.6364 92.5497 36.5985C90.2068 53.6928 70.75 63.8364 54.1911 67.7513Z" fill="#231F20"/>
  <path d="M34.9541 0.62264L40.1823 0.00039959L40.7478 0.953996L36.415 1.46546L37.774 3.76661L35.9832 3.97949L34.3462 1.20443L34.0635 0.728604L34.9541 0.62264Z" fill="#231F20"/>
  <path d="M0 61.3697L1.10758 57.2926L1.34042 56.3933L2.10763 56.5532L6.62644 57.4815L6.14931 59.3135L2.41684 58.5327L1.54596 61.6934L0 61.3697Z" fill="#231F20"/>
  <g fill="#737574">
    <path d="M210.472 74.1433C210.531 74.1436 210.589 74.1502 210.645 74.1631L236.333 80.1073C236.847 80.1727 237.321 80.4236 237.664 80.8128C238.007 81.2021 238.197 81.7031 238.197 82.2219V83.5165C238.197 84.018 238.02 84.5036 237.697 84.8872H241.706V84.1851C241.62 84.108 241.559 84.0065 241.532 83.8941C241.505 83.7817 241.512 83.6636 241.553 83.5556C241.595 83.4475 241.668 83.3546 241.763 83.289C241.858 83.2234 241.971 83.1883 242.087 83.1883C242.203 83.1883 242.316 83.2234 242.411 83.289C242.507 83.3546 242.58 83.4475 242.621 83.5556C242.662 83.6636 242.67 83.7817 242.642 83.8941C242.615 84.0065 242.554 84.108 242.468 84.1851V84.8872C242.468 85.0891 242.388 85.2828 242.245 85.4256C242.102 85.5684 241.908 85.6486 241.706 85.6486H241.421V86.4444L240.66 86.4398V85.6486H226.005C226.005 84.9418 225.724 84.2639 225.224 83.7641C224.724 83.2642 224.046 82.9834 223.338 82.9834C222.631 82.9834 221.953 83.2642 221.453 83.7641C220.953 84.2639 220.672 84.9418 220.672 85.6486H210.616C210.051 85.6486 209.508 85.424 209.108 85.0241C208.708 84.6243 208.483 84.082 208.483 83.5165V82.2219C208.483 81.6565 208.708 81.1141 209.108 80.7143C209.508 80.3144 210.051 80.0898 210.616 80.0898H211.355V75.8917L210.299 75.6473C210.116 75.6056 209.955 75.4979 209.846 75.3447C209.738 75.1916 209.69 75.0038 209.711 74.8175C209.733 74.6311 209.822 74.4592 209.963 74.3348C210.103 74.2104 210.285 74.1422 210.472 74.1433ZM211.891 80.0898H229.501L211.888 76.012V80.0867L211.891 80.0898ZM210.472 73.3818C210.098 73.3816 209.737 73.5192 209.457 73.7683C209.178 74.0174 209 74.3606 208.958 74.7324C208.915 75.1042 209.011 75.4786 209.228 75.7841C209.444 76.0897 209.765 76.305 210.13 76.389L210.596 76.4971V79.3283C209.832 79.3345 209.102 79.6421 208.564 80.1841C208.026 80.7261 207.725 81.4586 207.725 82.2219V83.5165C207.725 84.2839 208.03 85.0199 208.572 85.5626C209.115 86.1053 209.852 86.4101 210.619 86.4101H220.675C220.877 86.4101 221.071 86.3299 221.214 86.1871C221.357 86.0443 221.437 85.8506 221.437 85.6486C221.437 85.1437 221.638 84.6595 221.995 84.3025C222.352 83.9455 222.836 83.7449 223.342 83.7449C223.847 83.7449 224.331 83.9455 224.688 84.3025C225.045 84.6595 225.246 85.1437 225.246 85.6486C225.246 85.8506 225.326 86.0443 225.469 86.1871C225.612 86.3299 225.806 86.4101 226.008 86.4101H239.902V86.4368C239.902 86.6387 239.982 86.8324 240.125 86.9752C240.268 87.118 240.461 87.1983 240.663 87.1983L241.425 87.2028C241.627 87.2028 241.821 87.1226 241.964 86.9798C242.107 86.837 242.187 86.6433 242.187 86.4414V86.334C242.491 86.2331 242.756 86.0391 242.944 85.7795C243.132 85.5198 243.233 85.2076 243.234 84.8872V84.4455C243.34 84.2694 243.403 84.0712 243.42 83.8665C243.436 83.6617 243.405 83.4559 243.329 83.2651C243.253 83.0743 243.134 82.9037 242.981 82.7666C242.828 82.6295 242.645 82.5297 242.447 82.4748C242.249 82.42 242.041 82.4117 241.839 82.4505C241.637 82.4894 241.447 82.5744 241.283 82.6988C241.12 82.8233 240.987 82.9838 240.896 83.1679C240.805 83.352 240.758 83.5547 240.758 83.7602C240.758 83.8838 240.775 84.0069 240.81 84.1257H238.888C238.931 83.9255 238.953 83.7213 238.953 83.5165V82.2219C238.952 81.525 238.7 80.8517 238.243 80.3255C237.786 79.7994 237.154 79.4556 236.464 79.3572L210.814 73.423C210.701 73.3969 210.585 73.3836 210.469 73.3834L210.472 73.3818ZM212.653 79.3283V76.973L222.833 79.3283H212.653Z"/>
    <path d="M223.35 86.7923C223.124 86.7923 222.903 86.7253 222.715 86.5998C222.527 86.4743 222.381 86.2959 222.294 86.0872C222.208 85.8784 222.185 85.6488 222.229 85.4272C222.273 85.2056 222.382 85.0021 222.542 84.8424C222.702 84.6826 222.905 84.5738 223.127 84.5298C223.348 84.4857 223.578 84.5083 223.787 84.5948C223.996 84.6812 224.174 84.8276 224.3 85.0155C224.425 85.2033 224.492 85.4241 224.492 85.65C224.492 85.953 224.372 86.2435 224.158 86.4577C223.943 86.6719 223.653 86.7923 223.35 86.7923ZM223.35 85.2693C223.274 85.2693 223.201 85.2916 223.138 85.3335C223.075 85.3753 223.027 85.4348 222.998 85.5043C222.969 85.5739 222.961 85.6505 222.976 85.7243C222.991 85.7982 223.027 85.866 223.08 85.9193C223.134 85.9725 223.202 86.0088 223.275 86.0235C223.349 86.0382 223.426 86.0306 223.496 86.0018C223.565 85.973 223.625 85.9242 223.666 85.8616C223.708 85.799 223.731 85.7253 223.731 85.65C223.731 85.5491 223.691 85.4522 223.619 85.3808C223.548 85.3094 223.451 85.2693 223.35 85.2693Z"/>
    <path d="M263.102 78.3519C263.205 78.3518 263.306 78.3807 263.393 78.4352C263.48 78.4898 263.551 78.5677 263.596 78.6603L264.694 80.9143H265.198C265.343 80.9143 265.483 80.972 265.586 81.0749C265.688 81.1777 265.746 81.3171 265.746 81.4626C265.746 81.5353 265.717 81.605 265.666 81.6564C265.614 81.7078 265.545 81.7367 265.472 81.7367H265.074C265.076 81.7533 265.078 81.7701 265.078 81.7869V84.7651C265.078 85.0452 264.971 85.3146 264.778 85.5179C264.586 85.7213 264.323 85.8432 264.043 85.8586V86.2569C264.043 86.3296 264.014 86.3993 263.962 86.4507C263.911 86.5021 263.841 86.531 263.769 86.531H263.22C263.147 86.531 263.078 86.5021 263.026 86.4507C262.975 86.3993 262.946 86.3296 262.946 86.2569V85.8624H258.084V86.2569C258.084 86.3296 258.055 86.3993 258.004 86.4507C257.952 86.5021 257.882 86.531 257.81 86.531H257.261C257.188 86.531 257.119 86.5022 257.067 86.4508C257.015 86.3994 256.986 86.3297 256.986 86.2569V85.8586C256.707 85.8432 256.443 85.7213 256.251 85.5179C256.058 85.3146 255.951 85.0452 255.951 84.7651V81.7869C255.951 81.7701 255.952 81.7533 255.956 81.7367H255.557C255.484 81.7367 255.415 81.7078 255.363 81.6564C255.312 81.605 255.283 81.5353 255.283 81.4626C255.283 81.3171 255.341 81.1777 255.443 81.0749C255.546 80.972 255.686 80.9143 255.831 80.9143H256.334L257.433 78.6603C257.478 78.5679 257.548 78.4899 257.636 78.4354C257.723 78.3809 257.823 78.3519 257.926 78.3519H263.099H263.102ZM257.081 81.7298H263.937V80.9364C263.937 80.4018 263.724 79.8893 263.346 79.5113C262.968 79.1333 262.455 78.9209 261.92 78.9207H259.093C258.559 78.9207 258.046 79.1331 257.667 79.5111C257.289 79.8891 257.077 80.4018 257.077 80.9364V81.7298H257.081ZM257.214 82.7571H263.8V82.3763H257.223V82.7571H257.214ZM263.394 84.2534C263.475 84.2536 263.555 84.2295 263.623 84.1843C263.691 84.1392 263.744 84.0749 263.775 83.9996C263.806 83.9244 263.815 83.8415 263.799 83.7615C263.783 83.6816 263.744 83.6081 263.686 83.5504C263.629 83.4927 263.555 83.4534 263.475 83.4375C263.395 83.4215 263.312 83.4296 263.237 83.4608C263.162 83.4919 263.097 83.5447 263.052 83.6125C263.007 83.6803 262.982 83.7599 262.982 83.8414C262.982 83.9506 263.026 84.0552 263.103 84.1325C263.18 84.2097 263.285 84.2532 263.394 84.2534ZM257.632 84.2534C257.714 84.2534 257.793 84.2292 257.861 84.184C257.929 84.1387 257.982 84.0744 258.013 83.9991C258.044 83.9238 258.052 83.841 258.036 83.7611C258.021 83.6812 257.981 83.6078 257.924 83.5501C257.866 83.4925 257.793 83.4533 257.713 83.4374C257.633 83.4215 257.55 83.4297 257.475 83.4608C257.399 83.492 257.335 83.5448 257.29 83.6126C257.244 83.6803 257.22 83.76 257.22 83.8414C257.22 83.9507 257.264 84.0555 257.341 84.1327C257.418 84.21 257.523 84.2534 257.632 84.2534ZM258.866 85.2114H262.159V84.389H258.866V85.2114ZM263.099 77.5904H257.932C257.686 77.5912 257.446 77.6606 257.238 77.7908C257.03 77.9209 256.862 78.1065 256.754 78.3267L255.863 80.1543H255.837C255.489 80.1545 255.156 80.2926 254.91 80.5382C254.665 80.7837 254.527 81.1168 254.526 81.4641C254.526 81.6741 254.59 81.8791 254.71 82.052C254.829 82.2248 254.998 82.3573 255.194 82.4319V84.7667C255.194 85.1164 255.293 85.4591 255.478 85.7555C255.664 86.0518 255.93 86.2898 256.245 86.4419C256.288 86.6813 256.414 86.898 256.6 87.0542C256.787 87.2103 257.022 87.296 257.266 87.2963H257.814C258.025 87.2959 258.23 87.2318 258.403 87.1125C258.576 86.9931 258.708 86.8241 258.783 86.6277H262.253C262.328 86.8241 262.461 86.9931 262.634 87.1125C262.807 87.2318 263.012 87.2959 263.222 87.2963H263.771C264.014 87.296 264.25 87.2103 264.436 87.0542C264.623 86.898 264.749 86.6813 264.792 86.4419C265.107 86.2898 265.372 86.0518 265.558 85.7555C265.744 85.4591 265.842 85.1164 265.842 84.7667V82.4304C266.038 82.3556 266.207 82.2231 266.327 82.0503C266.446 81.8775 266.51 81.6725 266.51 81.4626C266.51 81.1153 266.372 80.7824 266.126 80.5369C265.88 80.2913 265.547 80.1532 265.2 80.1528H265.169L264.279 78.3252C264.171 78.1049 264.003 77.9191 263.795 77.789C263.587 77.6589 263.346 77.5896 263.1 77.5889L263.099 77.5904ZM257.842 80.9683V80.9364C257.843 80.6038 257.975 80.2849 258.21 80.0498C258.445 79.8146 258.764 79.6824 259.097 79.6822H261.924C262.09 79.6811 262.254 79.7127 262.407 79.7752C262.56 79.8378 262.7 79.93 262.817 80.0465C262.935 80.1631 263.028 80.3017 263.091 80.4544C263.155 80.6071 263.188 80.7709 263.188 80.9364V80.9683H257.842Z"/>
    <path d="M248.895 87.2053C248.855 87.2053 248.815 87.1989 248.777 87.1863C248.729 87.1708 248.685 87.146 248.647 87.1134C248.609 87.0809 248.578 87.0412 248.555 86.9965C248.533 86.9519 248.519 86.9033 248.515 86.8534C248.511 86.8035 248.517 86.7533 248.533 86.7058L251.298 78.2639C251.262 78.2282 251.231 78.1886 251.204 78.1459L247.761 72.6106C247.71 72.5286 247.678 72.4362 247.666 72.3402C247.655 72.2441 247.666 72.1468 247.697 72.0551C247.728 71.9635 247.778 71.8799 247.846 71.8103C247.913 71.7407 247.995 71.6869 248.085 71.6527L257.361 68.1346C257.511 68.0775 257.677 68.0775 257.827 68.1346L267.103 71.655C267.194 71.6893 267.276 71.7432 267.343 71.8129C267.41 71.8825 267.461 71.9662 267.492 72.0579C267.523 72.1495 267.533 72.2469 267.522 72.343C267.511 72.4391 267.478 72.5316 267.427 72.6137L263.984 78.1482C263.925 78.243 263.843 78.3211 263.746 78.3753C263.649 78.4294 263.539 78.4577 263.428 78.4573H252.036L249.257 86.9449C249.231 87.0208 249.183 87.0868 249.118 87.1336C249.053 87.1803 248.975 87.2054 248.895 87.2053ZM261.9 77.6936H263.368L266.712 72.319L257.594 68.8611L248.477 72.3213L251.819 77.6959H253.286L255.846 72.5977L255.853 72.5848L257.105 70.0916C257.15 70.0012 257.22 69.9252 257.306 69.8721C257.392 69.819 257.491 69.7909 257.592 69.7909C257.693 69.7909 257.793 69.819 257.879 69.8721C257.965 69.9252 258.034 70.0012 258.08 70.0916L261.9 77.6936ZM259.348 77.6936H261.048L259.348 74.3088V77.6936ZM256.573 77.6936H258.586V72.7942L257.596 70.8181L256.575 72.852L256.573 77.6936ZM254.14 77.6936H255.811V74.3689L254.14 77.6936Z"/>
    <path d="M147.077 87.2087C146.701 87.2087 146.334 87.0974 146.022 86.8889C145.71 86.6804 145.466 86.384 145.323 86.0373C145.179 85.6905 145.141 85.309 145.215 84.9409C145.288 84.5728 145.469 84.2346 145.734 83.9693C146 83.7039 146.338 83.5231 146.706 83.4499C147.074 83.3767 147.456 83.4143 147.803 83.5579C148.15 83.7015 148.446 83.9447 148.655 84.2568C148.864 84.5689 148.975 84.9358 148.975 85.3111C148.974 85.8142 148.774 86.2965 148.418 86.6522C148.062 87.008 147.58 87.2081 147.077 87.2087ZM147.077 84.1749C146.852 84.1749 146.632 84.2416 146.445 84.3664C146.258 84.4913 146.113 84.6687 146.026 84.8763C145.94 85.0839 145.918 85.3123 145.962 85.5327C146.006 85.7531 146.114 85.9556 146.273 86.1144C146.432 86.2733 146.634 86.3815 146.855 86.4254C147.075 86.4692 147.304 86.4467 147.512 86.3607C147.719 86.2747 147.897 86.1291 148.022 85.9423C148.147 85.7554 148.213 85.5358 148.213 85.3111C148.213 85.0098 148.093 84.721 147.88 84.5079C147.667 84.2949 147.378 84.1751 147.077 84.1749ZM164.811 85.6918H149.351V85.3111C149.351 84.708 149.112 84.1297 148.685 83.7033C148.258 83.2768 147.68 83.0373 147.077 83.0373C146.473 83.0373 145.895 83.2768 145.468 83.7033C145.041 84.1297 144.802 84.708 144.802 85.3111V85.6918H134.404C133.74 85.691 133.103 85.4269 132.633 84.9574C132.163 84.4879 131.899 83.8513 131.898 83.1873V81.8981C131.898 81.8928 131.898 81.8882 131.898 81.8829V71.9835C131.9 71.0785 132.261 70.2111 132.901 69.5714C133.542 68.9318 134.41 68.5721 135.315 68.5713H155.046C156.957 68.5735 158.79 69.3335 160.142 70.6845C161.493 72.0355 162.254 73.8673 162.256 75.778V83.1873C162.256 83.3914 162.23 83.5947 162.18 83.7927H163.672C163.975 83.7927 164.265 83.913 164.48 84.1272C164.694 84.3414 164.814 84.632 164.814 84.9349L164.811 85.6918ZM157.918 84.9303H164.05C164.048 84.8301 164.008 84.7345 163.936 84.6641C163.865 84.5936 163.769 84.5542 163.669 84.5542H161L161.293 83.996C161.425 83.7469 161.494 83.4691 161.493 83.1873V81.8554L161.484 81.4656H161.494V75.778C161.492 74.0689 160.812 72.4303 159.603 71.222C158.394 70.0136 156.754 69.3342 155.044 69.3328H135.314C134.61 69.3336 133.935 69.6133 133.437 70.1107C132.94 70.608 132.66 71.2824 132.659 71.9858V81.4656H132.669L132.659 81.8981V83.1873C132.659 83.6494 132.843 84.0924 133.17 84.4191C133.497 84.7459 133.94 84.9297 134.402 84.9303H144.062C144.156 84.1975 144.513 83.5239 145.068 83.0357C145.622 82.5475 146.336 82.2782 147.075 82.2782C147.814 82.2782 148.528 82.5475 149.082 83.0357C149.637 83.5239 149.995 84.1975 150.088 84.9303H152.983V75.0713C152.983 74.829 153.079 74.5966 153.251 74.4252C153.422 74.2538 153.655 74.1576 153.897 74.1576H157.008C157.251 74.1576 157.483 74.2538 157.655 74.4252C157.826 74.5966 157.922 74.829 157.922 75.0713L157.918 84.9303ZM153.744 84.9303H157.156V75.0713C157.156 75.031 157.14 74.9922 157.111 74.9637C157.083 74.9351 157.044 74.9191 157.004 74.9191H153.894C153.854 74.9191 153.815 74.9351 153.786 74.9637C153.758 74.9922 153.742 75.031 153.742 75.0713L153.744 84.9303ZM142.555 77.6962H136.484C136.334 77.6962 136.186 77.6667 136.047 77.6093C135.909 77.5518 135.783 77.4677 135.676 77.3616C135.57 77.2556 135.486 77.1297 135.429 76.9911C135.371 76.8525 135.342 76.704 135.342 76.554V73.1433C135.342 72.8403 135.462 72.5498 135.676 72.3356C135.891 72.1214 136.181 72.001 136.484 72.001H142.555C142.858 72.001 143.149 72.1214 143.363 72.3356C143.578 72.5498 143.698 72.8403 143.698 73.1433V76.557C143.697 76.8594 143.576 77.1492 143.362 77.3627C143.148 77.5763 142.858 77.6962 142.555 77.6962ZM136.484 72.7656C136.383 72.7656 136.287 72.8057 136.215 72.8771C136.144 72.9485 136.104 73.0453 136.104 73.1463V76.5601C136.104 76.661 136.144 76.7579 136.215 76.8293C136.287 76.9007 136.383 76.9408 136.484 76.9408H142.555C142.656 76.9408 142.753 76.9007 142.825 76.8293C142.896 76.7579 142.936 76.661 142.936 76.5601V73.1433C142.936 73.0423 142.896 72.9454 142.825 72.874C142.753 72.8026 142.656 72.7625 142.555 72.7625L136.484 72.7656ZM149.587 76.1786H145.794C145.491 76.1786 145.201 76.0582 144.986 75.844C144.772 75.6298 144.652 75.3393 144.652 75.0363V73.1433C144.652 72.8403 144.772 72.5498 144.986 72.3356C145.201 72.1214 145.491 72.001 145.794 72.001H149.588C149.891 72.001 150.182 72.1214 150.396 72.3356C150.611 72.5498 150.731 72.8403 150.731 73.1433V75.0394C150.73 75.3418 150.609 75.6315 150.395 75.8451C150.181 76.0586 149.891 76.1786 149.588 76.1786H149.587ZM145.794 72.7656C145.693 72.7656 145.597 72.8057 145.525 72.8771C145.454 72.9485 145.414 73.0453 145.414 73.1463V75.0424C145.414 75.1434 145.454 75.2402 145.525 75.3116C145.597 75.383 145.693 75.4232 145.794 75.4232H149.588C149.689 75.4232 149.786 75.383 149.858 75.3116C149.929 75.2402 149.969 75.1434 149.969 75.0424V73.1433C149.969 73.0423 149.929 72.9454 149.858 72.874C149.786 72.8026 149.689 72.7625 149.588 72.7625L145.794 72.7656Z"/>
    <path d="M197.988 87.1809C197.536 87.1809 197.094 87.047 196.719 86.7959C196.343 86.5449 196.05 86.1881 195.877 85.7707C195.704 85.3533 195.659 84.8939 195.747 84.4508C195.835 84.0077 196.053 83.6006 196.372 83.2811C196.692 82.9616 197.099 82.7441 197.542 82.6559C197.986 82.5678 198.445 82.613 198.863 82.7859C199.28 82.9588 199.637 83.2516 199.888 83.6273C200.14 84.003 200.274 84.4447 200.274 84.8965C200.274 85.5024 200.033 86.0834 199.604 86.5118C199.176 86.9403 198.594 87.1809 197.988 87.1809ZM197.988 83.3735C197.687 83.3735 197.392 83.4628 197.142 83.6302C196.891 83.7975 196.696 84.0354 196.581 84.3137C196.465 84.5919 196.435 84.8982 196.494 85.1936C196.553 85.489 196.698 85.7604 196.911 85.9734C197.124 86.1864 197.395 86.3314 197.691 86.3902C197.987 86.449 198.293 86.4188 198.571 86.3035C198.85 86.1883 199.088 85.9931 199.255 85.7426C199.422 85.4921 199.512 85.1977 199.512 84.8965C199.511 84.493 199.35 84.1062 199.065 83.821C198.779 83.5359 198.392 83.3758 197.988 83.3758V83.3735ZM174.896 87.1809C174.444 87.1809 174.002 87.047 173.626 86.7959C173.25 86.5449 172.957 86.1881 172.784 85.7707C172.611 85.3533 172.566 84.8939 172.654 84.4508C172.742 84.0077 172.96 83.6006 173.28 83.2811C173.599 82.9616 174.007 82.7441 174.45 82.6559C174.893 82.5678 175.353 82.613 175.77 82.7859C176.188 82.9588 176.545 83.2516 176.796 83.6273C177.047 84.003 177.181 84.4447 177.181 84.8965C177.181 85.5024 176.94 86.0834 176.512 86.5118C176.083 86.9403 175.502 87.1809 174.896 87.1809ZM174.896 83.3735C174.594 83.3735 174.3 83.4628 174.049 83.6302C173.799 83.7975 173.603 84.0354 173.488 84.3137C173.373 84.5919 173.343 84.8982 173.401 85.1936C173.46 85.489 173.605 85.7604 173.818 85.9734C174.031 86.1864 174.303 86.3314 174.598 86.3902C174.894 86.449 175.2 86.4188 175.479 86.3035C175.757 86.1883 175.995 85.9931 176.163 85.7426C176.33 85.4921 176.419 85.1977 176.419 84.8965C176.419 84.493 176.258 84.1062 175.972 83.821C175.687 83.5359 175.299 83.3758 174.896 83.3758V83.3735ZM202.334 85.2574H201.155C201.054 85.2574 200.957 85.2173 200.886 85.1459C200.814 85.0745 200.774 84.9777 200.774 84.8767C200.762 84.1446 200.463 83.4466 199.94 82.9331C199.418 82.4197 198.715 82.1319 197.983 82.1319C197.25 82.1319 196.547 82.4197 196.025 82.9331C195.502 83.4466 195.203 84.1446 195.191 84.8767C195.191 84.9777 195.151 85.0745 195.079 85.1459C195.008 85.2173 194.911 85.2574 194.81 85.2574H178.057C177.956 85.2574 177.859 85.2173 177.788 85.1459C177.716 85.0745 177.676 84.9777 177.676 84.8767C177.664 84.1446 177.365 83.4466 176.843 82.9331C176.32 82.4197 175.617 82.1319 174.885 82.1319C174.152 82.1319 173.449 82.4197 172.927 82.9331C172.405 83.4466 172.105 84.1446 172.093 84.8767C172.093 84.9777 172.053 85.0745 171.981 85.1459C171.91 85.2173 171.813 85.2574 171.712 85.2574H170.53C170.429 85.2574 170.332 85.2173 170.26 85.1459C170.189 85.0745 170.149 84.9777 170.149 84.8767V84.4541C170.15 84.0408 170.306 83.6428 170.585 83.3385C170.489 83.1161 170.399 82.8747 170.316 82.6151C169.747 81.0791 169.434 79.0109 169.434 76.7904C169.434 74.6811 169.72 72.6868 170.24 71.1745C170.943 69.1322 171.82 68.6349 172.445 68.5854C172.465 68.5821 172.485 68.5803 172.504 68.5801H194.017C195.262 68.5815 196.455 69.0765 197.336 69.9564C198.216 70.8364 198.711 72.0294 198.713 73.2739C198.712 73.4513 198.642 73.6213 198.516 73.7467C198.391 73.8721 198.221 73.9425 198.043 73.9425H196.247L197.999 76.6716L201.33 78.449C201.386 78.4756 201.442 78.5061 201.502 78.5403L201.528 78.5533C201.543 78.562 201.559 78.5717 201.573 78.5822C201.959 78.8219 202.278 79.1558 202.499 79.5525C202.721 79.9492 202.838 80.3957 202.839 80.8499V82.9585C203.034 83.0634 203.197 83.219 203.31 83.4089C203.423 83.5987 203.483 83.8157 203.482 84.0368V84.1213C203.481 84.424 203.36 84.7139 203.145 84.9273C202.931 85.1408 202.64 85.2603 202.337 85.2597L202.334 85.2574ZM201.512 84.4959H202.334C202.435 84.4959 202.532 84.4558 202.604 84.3844C202.675 84.313 202.715 84.2162 202.715 84.1152V84.0307C202.715 83.9268 202.68 83.826 202.616 83.7443C202.552 83.6626 202.463 83.6047 202.362 83.5799C202.279 83.5595 202.206 83.512 202.153 83.4451C202.101 83.3781 202.072 83.2956 202.072 83.2105V80.8469C202.074 80.5177 201.989 80.1939 201.827 79.9076C201.664 79.6212 201.43 79.3822 201.147 79.2143L201.138 79.2089H201.134L201.121 79.2021C201.074 79.1747 201.03 79.1518 200.988 79.1313L200.974 79.1244L197.626 77.3471L193.452 77.3052H193.375C193.21 77.309 192.984 77.3143 192.812 77.1461C192.758 77.0912 192.715 77.0258 192.687 76.9539C192.659 76.8819 192.646 76.8051 192.65 76.728V73.7986C192.643 73.6785 192.675 73.5595 192.742 73.459C192.808 73.3584 192.904 73.2816 193.017 73.2396C193.154 73.1949 193.299 73.1763 193.444 73.1848H197.944C197.919 72.1596 197.494 71.1848 196.761 70.4678C196.027 69.7507 195.043 69.348 194.017 69.3454H172.539H172.522C171.422 69.3964 170.195 72.4675 170.195 76.7912C170.195 78.8967 170.5 80.9261 171.033 82.3592C171.033 82.3645 171.037 82.3706 171.039 82.376C171.134 82.6808 171.252 82.9781 171.391 83.2654C171.431 83.3456 171.441 83.4374 171.42 83.5244C171.399 83.6115 171.348 83.6883 171.276 83.7413C171.163 83.823 171.07 83.9305 171.007 84.0549C170.944 84.1792 170.911 84.3168 170.911 84.4563V84.4982H171.353C171.446 83.6267 171.858 82.8205 172.511 82.2347C173.163 81.6488 174.009 81.3247 174.885 81.3247C175.762 81.3247 176.608 81.6488 177.26 82.2347C177.913 82.8205 178.325 83.6267 178.418 84.4982H186.018V75.2134C186.018 74.9555 186.121 74.7083 186.304 74.526C186.486 74.3437 186.734 74.2412 186.992 74.241H190.459C190.716 74.2428 190.962 74.346 191.143 74.5281C191.325 74.7102 191.426 74.9565 191.427 75.2134V84.4982H194.447C194.541 83.6267 194.953 82.8205 195.605 82.2347C196.257 81.6488 197.103 81.3247 197.98 81.3247C198.857 81.3247 199.703 81.6488 200.355 82.2347C201.007 82.8205 201.42 83.6267 201.513 84.4982L201.512 84.4959ZM186.773 84.4959H190.665V75.2134C190.665 75.1574 190.642 75.1037 190.603 75.0642C190.563 75.0247 190.509 75.0025 190.453 75.0025H186.986C186.929 75.0025 186.876 75.0247 186.836 75.0642C186.796 75.1037 186.774 75.1574 186.774 75.2134L186.773 84.4959ZM193.459 76.5452L197.025 76.581L195.485 74.177C195.48 74.1692 195.475 74.161 195.47 74.1526C195.434 74.0849 195.394 74.0171 195.35 73.9501H193.414V76.5452H193.459ZM184.012 77.8108H178.933C178.827 77.8106 178.723 77.7895 178.625 77.7488C178.527 77.708 178.438 77.6483 178.364 77.5732C178.289 77.498 178.23 77.4089 178.19 77.3109C178.15 77.2129 178.13 77.108 178.13 77.0021V74.4664C178.131 74.2535 178.215 74.0494 178.366 73.8988C178.516 73.7482 178.72 73.6634 178.933 73.663H184.009C184.222 73.6632 184.427 73.7479 184.577 73.8985C184.728 74.0492 184.813 74.2534 184.813 74.4664V77.0021C184.813 77.2153 184.729 77.4198 184.578 77.5707C184.427 77.7216 184.223 77.8066 184.01 77.807L184.012 77.8108ZM178.933 74.4245C178.922 74.4245 178.911 74.4289 178.904 74.4368C178.896 74.4446 178.891 74.4553 178.891 74.4664V77.0021C178.891 77.0132 178.896 77.0239 178.904 77.0317C178.911 77.0396 178.922 77.044 178.933 77.044H184.009C184.02 77.044 184.031 77.0396 184.039 77.0317C184.047 77.0239 184.051 77.0132 184.051 77.0021V74.4664C184.051 74.4553 184.047 74.4446 184.039 74.4368C184.031 74.4289 184.02 74.4245 184.009 74.4245H178.933ZM177.042 77.807H171.967C171.861 77.8069 171.756 77.786 171.659 77.7455C171.561 77.705 171.473 77.6457 171.398 77.571C171.323 77.4962 171.264 77.4075 171.224 77.3099C171.183 77.2123 171.163 77.1077 171.163 77.0021V74.4664C171.163 74.2534 171.248 74.0492 171.399 73.8985C171.549 73.7479 171.753 73.6632 171.967 73.663H177.042C177.256 73.6632 177.46 73.7479 177.611 73.8985C177.761 74.0492 177.846 74.2534 177.846 74.4664V77.0021C177.846 77.2153 177.762 77.4198 177.611 77.5707C177.46 77.7216 177.256 77.8066 177.042 77.807H177.042ZM171.967 74.4245C171.955 74.4245 171.945 74.4289 171.937 74.4368C171.929 74.4446 171.925 74.4553 171.925 74.4664V77.0021C171.925 77.0132 171.929 77.0239 171.937 77.0317C171.945 77.0396 171.955 77.044 171.967 77.044H177.042C177.054 77.044 177.064 77.0396 177.072 77.0317C177.08 77.0239 177.084 77.0132 177.084 77.0021V74.4664C177.084 74.4553 177.08 74.4446 177.072 74.4368C177.064 74.4289 177.054 74.4245 177.042 74.4245H171.967ZM194.173 72.5139H189.097C188.884 72.5137 188.68 72.429 188.529 72.2784C188.378 72.1278 188.294 71.9236 188.294 71.7106V70.8645C188.294 70.6516 188.379 70.4475 188.529 70.2969C188.68 70.1463 188.884 70.0616 189.097 70.0612H194.173C194.386 70.0614 194.591 70.1461 194.741 70.2967C194.892 70.4473 194.977 70.6515 194.977 70.8645V71.7106C194.977 71.9236 194.892 72.1278 194.741 72.2784C194.591 72.429 194.386 72.5137 194.173 72.5139ZM189.097 70.8227C189.086 70.8227 189.075 70.8271 189.068 70.8349C189.06 70.8428 189.055 70.8534 189.055 70.8645V71.7106C189.055 71.7217 189.06 71.7323 189.068 71.7402C189.075 71.748 189.086 71.7524 189.097 71.7524H194.173C194.184 71.7524 194.195 71.748 194.203 71.7402C194.211 71.7323 194.215 71.7217 194.215 71.7106V70.8645C194.215 70.8534 194.211 70.8428 194.203 70.8349C194.195 70.8271 194.184 70.8227 194.173 70.8227H189.097Z"/>
    <path d="M126.897 87.5713C126.796 87.5713 126.7 87.5312 126.628 87.4598C126.557 87.3884 126.517 87.2915 126.517 87.1905V86.7032L121.528 82.052L124.034 86.1953C124.095 86.2968 124.129 86.4128 124.13 86.5314C124.132 86.6501 124.103 86.7671 124.044 86.8704C123.986 86.9738 123.901 87.0598 123.799 87.1197C123.696 87.1795 123.58 87.2111 123.461 87.2111H119.337C119.256 87.2111 119.178 87.1858 119.113 87.1387C119.048 87.0917 119 87.0253 118.975 86.9491L117.096 81.238V86.8326C117.096 86.9336 117.056 87.0305 116.985 87.1019C116.913 87.1733 116.816 87.2134 116.715 87.2134H115.406C115.305 87.2134 115.208 87.1733 115.136 87.1019C115.065 87.0305 115.025 86.9336 115.025 86.8326V81.2357L113.146 86.9469C113.121 87.023 113.073 87.0894 113.008 87.1364C112.943 87.1835 112.865 87.2088 112.784 87.2088H108.66C108.542 87.2087 108.425 87.1772 108.323 87.1175C108.221 87.0578 108.136 86.9721 108.078 86.869C108.019 86.766 107.99 86.6494 107.991 86.531C107.993 86.4126 108.025 86.2968 108.086 86.1953L110.55 82.1228L105.649 86.7032V87.1905C105.649 87.2915 105.608 87.3884 105.537 87.4598C105.466 87.5312 105.369 87.5713 105.268 87.5713C105.167 87.5713 105.07 87.5312 104.998 87.4598C104.927 87.3884 104.887 87.2915 104.887 87.1905V86.177C104.887 86.1106 104.904 86.0453 104.937 85.9877C104.97 85.93 105.017 85.8819 105.074 85.8482C105.131 85.8145 105.196 85.7963 105.263 85.7955C105.329 85.7947 105.395 85.8112 105.453 85.8435L112.004 79.7249L115.487 73.9627C115.546 73.8637 115.63 73.7819 115.731 73.7251C115.831 73.6684 115.945 73.6387 116.06 73.6391C116.176 73.6386 116.289 73.6682 116.39 73.7249C116.49 73.7817 116.574 73.8636 116.634 73.9627L117.069 74.6823V68.911C117.069 68.81 117.109 68.7132 117.18 68.6418C117.252 68.5704 117.349 68.5303 117.45 68.5303C117.551 68.5303 117.648 68.5704 117.719 68.6418C117.79 68.7132 117.83 68.81 117.83 68.911V69.3177L120.439 70.2497C120.513 70.2761 120.577 70.3247 120.622 70.3889C120.668 70.4531 120.692 70.5298 120.692 70.6084C120.692 70.687 120.668 70.7636 120.622 70.8278C120.577 70.892 120.513 70.9407 120.439 70.967L117.83 71.8991V75.9418L120.089 79.6731C120.104 79.6832 120.118 79.6944 120.13 79.7066L126.712 85.8427C126.77 85.8103 126.835 85.7936 126.902 85.7943C126.968 85.795 127.033 85.8131 127.09 85.8467C127.148 85.8804 127.195 85.9284 127.228 85.9861C127.261 86.0438 127.278 86.109 127.278 86.1755V87.189C127.279 87.2391 127.269 87.2888 127.25 87.3352C127.231 87.3816 127.203 87.4237 127.167 87.4592C127.132 87.4947 127.09 87.5229 127.044 87.5421C126.997 87.5614 126.948 87.5713 126.897 87.5713ZM119.612 86.4496H123.298L116.06 74.4882L108.823 86.4511H112.509L114.904 79.166C114.904 79.1606 114.904 79.1561 114.909 79.1507C114.949 79.0552 115.021 78.9762 115.113 78.9269C115.204 78.8776 115.309 78.8608 115.411 78.8793C115.514 78.8978 115.606 78.9506 115.675 79.0288C115.743 79.1071 115.782 79.2062 115.787 79.3099V86.4511H116.334V79.3084C116.335 79.2023 116.372 79.0997 116.44 79.0184C116.508 78.9371 116.603 78.8823 116.707 78.8634C116.811 78.8446 116.919 78.8629 117.011 78.9153C117.104 78.9677 117.175 79.0507 117.212 79.15L117.216 79.1645L119.612 86.4496ZM117.83 70.1264V71.0904L119.179 70.6084L117.83 70.1264Z"/>
  </g>
  <g fill="#8F8B8D">
    <path d="M259.964 58.5693L258.953 56.1515H259.459L260.227 58.0685L260.979 56.1515H261.478L260.421 58.5693H259.964Z"/>
    <path d="M263.498 58.5693H261.744V58.2514L262.96 56.4694H261.762V56.1515H263.451V56.4694L262.238 58.2514H263.498V58.5693Z"/>
    <path d="M267.636 56.1515L266.786 58.5693H266.267L265.704 56.5804H265.694L265.069 58.5693H264.535L263.737 56.1515H264.232L264.815 58.0975H264.824L265.425 56.1515H266.017L266.559 58.0599H266.569L267.17 56.1515H267.636Z"/>
  </g>
</svg>
