<?xml version="1.0" encoding="UTF-8" standalone="no"?>
<svg
   xmlns:dc="http://purl.org/dc/elements/1.1/"
   xmlns:cc="http://creativecommons.org/ns#"
   xmlns:rdf="http://www.w3.org/1999/02/22-rdf-syntax-ns#"
   xmlns:svg="http://www.w3.org/2000/svg"
   xmlns="http://www.w3.org/2000/svg"
   version="1.1"
   id="svg2"
   xml:space="preserve"
   width="991.60614"
   height="878.56299"
   viewBox="0 0 991.60614 878.56299"><title
     id="title892">VKT-logo met kampeermiddel, zonder rand</title><metadata
     id="metadata8"><rdf:RDF><cc:Work
         rdf:about=""><dc:format>image/svg+xml</dc:format><dc:type
           rdf:resource="http://purl.org/dc/dcmitype/StillImage" /><dc:title>VKT-logo met kampeermiddel, zonder rand</dc:title></cc:Work></rdf:RDF></metadata><defs
     id="defs6"><clipPath
       clipPathUnits="userSpaceOnUse"
       id="clipPath24"><path
         d="M 0,595.28 H 841.89 V 0 H 0 Z"
         id="path22" /></clipPath><clipPath
       clipPathUnits="userSpaceOnUse"
       id="clipPath26"><path
         d="M 0,226.772 H 226.772 V 0 H 0 Z"
         id="path24" /></clipPath></defs><g
     id="layer7"
     transform="translate(-53.719856,-32.621055)"><g
       aria-label="VZW"
       id="text914"
       style="font-weight:bold;font-size:26.6667px;line-height:1.25;font-family:'Sophia Nubian';-inkscape-font-specification:'Sophia Nubian Bold';letter-spacing:0px;fill:#f9b233;fill-opacity:1"
       transform="translate(-3.228114e-5,-5.2490451)"><path
         d="m 1002.5523,729.89136 -6.8533,19.25335 h -2.93334 l -6.85334,-19.25335 h 3.01334 l 5.30667,15.78668 5.30667,-15.78668 z"
         style="font-style:normal;font-variant:normal;font-weight:normal;font-stretch:normal;font-size:26.6667px;font-family:'Sophia Nubian';-inkscape-font-specification:'Sophia Nubian';fill:#f9b233;fill-opacity:1"
         id="path897" /><path
         d="m 1018.3923,749.14471 h -14.0267 v -2.93333 l 10.8267,-14.00002 h -10.2933 v -2.32 h 13.2267 v 2.93333 l -10.8267,14.00002 h 11.0933 z"
         style="font-style:normal;font-variant:normal;font-weight:normal;font-stretch:normal;font-size:26.6667px;font-family:'Sophia Nubian';-inkscape-font-specification:'Sophia Nubian';fill:#f9b233;fill-opacity:1"
         id="path899" /><path
         d="m 1045.3257,729.89136 -5.7067,19.25335 h -2.4 l -4.4534,-16.05335 -4.4533,16.05335 h -2.4 l -5.7067,-19.25335 h 2.8267 l 4.08,15.25335 4.0533,-15.25335 h 3.2 l 4.0534,15.25335 4.08,-15.25335 z"
         style="font-style:normal;font-variant:normal;font-weight:normal;font-stretch:normal;font-size:26.6667px;font-family:'Sophia Nubian';-inkscape-font-specification:'Sophia Nubian';fill:#f9b233;fill-opacity:1"
         id="path901" /></g><g
       aria-label="Kampeertoeristen"
       transform="scale(1.0075197,0.99253642)"
       id="text910"
       style="font-weight:bold;font-size:23.7484px;line-height:1.25;font-family:'Sophia Nubian';-inkscape-font-specification:'Sophia Nubian Bold';letter-spacing:0px;display:inline;stroke-width:0.593709"><path
         d="m 120.57419,726.91913 h -20.51856 l -29.637916,-41.2651 v 41.2651 h -17.0988 v -82.30222 h 17.0988 v 35.33752 l 27.358079,-35.33752 h 19.378637 l -28.953965,36.81941 z"
         style="font-size:113.992px;fill:#000000;fill-opacity:1;stroke-width:0.593709"
         id="path864" /><path
         d="m 183.49767,726.91913 h -14.02102 l -1.70988,-6.83952 -6.83952,5.58561 q -4.55968,2.8498 -10.37327,2.8498 -3.87573,0 -7.40948,-1.25392 -3.53375,-1.25391 -6.26956,-3.53375 -2.73581,-2.27984 -4.33169,-5.47161 -1.59589,-3.30577 -1.59589,-7.29549 0,-10.37327 7.0675,-15.7309 7.1815,-5.47161 20.06259,-5.47161 h 8.32142 q 0,-3.87573 -0.45597,-6.26956 -0.34197,-2.50783 -1.3679,-3.76174 -1.02593,-1.3679 -2.8498,-1.82387 -1.70988,-0.45597 -4.44569,-0.45597 -2.27984,0 -3.76174,0.34198 -1.48189,0.34197 -2.50782,1.25391 -0.91194,0.91194 -1.4819,2.50782 -0.56996,1.59589 -1.02592,4.10372 H 133.2272 q 0,-3.76174 1.70988,-6.95352 1.70988,-3.19177 4.90165,-5.47161 3.19178,-2.27984 7.63747,-3.53375 4.55968,-1.36791 10.25928,-1.36791 8.5494,0 14.70496,3.07779 6.26956,3.07778 7.86545,8.5494 1.25391,4.33169 1.25391,13.67904 v 10.25928 q 0,15.95887 1.93787,23.02638 z m -17.0988,-28.498 q -1.13992,-0.11399 -2.39383,-0.11399 -1.25391,0 -2.8498,0 -14.59098,0 -14.59098,11.74117 0,1.70988 0.68395,3.19178 0.79795,1.48189 1.93787,2.62181 1.25391,1.02593 2.8498,1.70988 1.59589,0.68396 3.30577,0.68396 2.96379,0 5.01564,-0.91194 2.16585,-1.02593 3.41976,-3.30577 1.36791,-2.27984 1.93787,-6.04157 0.68395,-3.87573 0.68395,-9.57533 z"
         style="font-size:113.992px;fill:#000000;fill-opacity:1;stroke-width:0.593709"
         id="path866" /><path
         d="m 286.88837,726.91913 h -15.38892 v -36.47744 q 0,-5.24363 -2.73581,-8.89138 -2.73581,-3.64774 -7.0675,-3.64774 -3.53376,0 -6.95352,3.30577 -4.67367,4.44569 -4.67367,12.65311 v 33.05768 h -15.38892 v -36.47744 q 0,-5.24363 -2.62181,-8.89138 -2.62182,-3.64774 -6.95351,-3.64774 -3.53376,0 -7.06751,3.30577 -4.90165,4.44569 -4.90165,12.65311 v 33.05768 h -15.38892 v -56.996 h 15.38892 v 8.20742 q 2.7358,-3.07778 5.47161,-6.15556 4.44569,-3.64775 12.31114,-3.64775 6.38355,0 10.48726,2.16585 2.96379,1.4819 4.78766,4.44569 1.13992,1.93786 2.27984,3.98972 1.4819,-2.05186 3.07779,-4.10371 2.39383,-2.8498 5.58561,-4.44569 4.2177,-2.05186 10.37327,-2.05186 9.9173,0 15.04694,6.49755 4.3317,5.5856 4.3317,14.59097 z"
         style="font-size:113.992px;fill:#000000;fill-opacity:1;stroke-width:0.593709"
         id="path868" /><path
         d="m 361.09699,697.62319 q 0,14.59097 -6.83952,22.79839 -6.83952,8.09344 -18.35271,8.09344 -6.83952,0 -11.05722,-2.27984 -1.36791,-0.68396 -5.6996,-4.44569 v 27.70005 h -15.38892 v -79.56641 h 15.38892 v 7.75146 q 7.40948,-9.34735 15.73089,-9.34735 13.33706,0 20.29058,9.46134 5.92758,7.97944 5.92758,19.83461 z m -15.27493,0 q 0,-7.86545 -3.07778,-12.99509 -3.64774,-6.04158 -10.48726,-6.04158 -6.15557,0 -9.91731,6.15557 -3.41976,5.6996 -3.41976,13.33706 0,20.74655 12.76711,20.74655 7.18149,0 10.94323,-6.83952 3.19177,-5.81359 3.19177,-14.36299 z"
         style="font-size:113.992px;fill:#000000;fill-opacity:1;stroke-width:0.593709"
         id="path870" /><path
         d="m 425.50226,697.16722 q 0,1.25391 0,2.39383 0,1.02593 -0.114,1.93786 h -36.81941 q 0,9.46134 2.50782,13.45106 2.62182,3.87573 8.43541,3.87573 8.09343,0 9.34734,-9.57533 h 15.50292 q -1.82388,19.26465 -25.30623,19.26465 -12.99508,0 -19.72061,-7.63747 -6.61154,-7.75145 -6.61154,-22.22844 0,-7.0675 1.82387,-12.65311 1.93787,-5.58561 5.35763,-9.46133 3.53375,-3.98972 8.5494,-6.04158 5.12964,-2.16585 11.51319,-2.16585 6.15557,0 10.82924,2.05186 4.78766,1.93786 7.97944,5.6996 3.30577,3.76173 5.01565,9.11936 1.70988,5.35762 1.70988,11.96916 z m -16.07288,-5.35763 q 0,-13.79303 -10.48726,-13.79303 -10.37327,0 -10.37327,13.79303 z"
         style="font-size:113.992px;fill:#000000;fill-opacity:1;stroke-width:0.593709"
         id="path872" /><path
         d="m 489.90759,697.16722 q 0,1.25391 0,2.39383 0,1.02593 -0.11399,1.93786 h -36.81942 q 0,9.46134 2.50783,13.45106 2.62181,3.87573 8.43541,3.87573 8.09343,0 9.34734,-9.57533 h 15.50291 q -1.82387,19.26465 -25.30622,19.26465 -12.99509,0 -19.72062,-7.63747 -6.61153,-7.75145 -6.61153,-22.22844 0,-7.0675 1.82387,-12.65311 1.93786,-5.58561 5.35762,-9.46133 3.53375,-3.98972 8.5494,-6.04158 5.12964,-2.16585 11.51319,-2.16585 6.15557,0 10.82924,2.05186 4.78767,1.93786 7.97944,5.6996 3.30577,3.76173 5.01565,9.11936 1.70988,5.35762 1.70988,11.96916 z m -16.07287,-5.35763 q 0,-13.79303 -10.48726,-13.79303 -10.37328,0 -10.37328,13.79303 z"
         style="font-size:113.992px;fill:#000000;fill-opacity:1;stroke-width:0.593709"
         id="path874" /><path
         d="m 539.038,681.43632 q -19.49263,0 -19.49263,16.30086 v 29.18195 h -15.38892 v -56.996 h 15.38892 v 8.77738 q 2.96379,-5.81359 7.0675,-8.09343 4.10371,-2.27984 12.42513,-2.27984 z"
         style="font-size:113.992px;fill:#000000;fill-opacity:1;stroke-width:0.593709"
         id="path876" /><path
         d="m 586.68659,726.34917 q -5.47161,1.93786 -11.74117,1.93786 -7.86545,0 -13.10908,-4.2177 -5.24363,-4.3317 -5.24363,-10.94323 v -33.51365 h -11.3992 v -9.68932 h 11.3992 v -8.77738 l 15.38892,-7.97944 v 16.75682 h 13.56504 v 9.68932 h -13.56504 v 29.18195 q 0,8.89138 9.00536,8.89138 3.07779,0 5.6996,-1.02593 z"
         style="font-size:113.992px;fill:#000000;fill-opacity:1;stroke-width:0.593709"
         id="path878" /><path
         d="m 654.51167,698.42113 q 0,12.19714 -7.29549,20.63255 -8.20743,9.46134 -22.11445,9.46134 -13.90702,0 -22.00045,-9.46134 -7.40948,-8.43541 -7.40948,-20.63255 0,-12.19714 7.40948,-20.63255 8.09343,-9.46134 22.00045,-9.46134 13.90702,0 22.11445,9.46134 7.29549,8.43541 7.29549,20.63255 z m -15.61691,0 q 0,-20.29058 -13.79303,-20.29058 -6.72553,0 -10.37327,5.35763 -3.53375,5.24363 -3.53375,14.93295 0,9.68932 3.53375,15.04694 3.64774,5.24363 10.37327,5.24363 13.79303,0 13.79303,-20.29057 z"
         style="font-size:113.992px;fill:#000000;fill-opacity:1;stroke-width:0.593709"
         id="path880" /><path
         d="m 718.91693,697.16722 q 0,1.25391 0,2.39383 0,1.02593 -0.11399,1.93786 h -36.81942 q 0,9.46134 2.50783,13.45106 2.62181,3.87573 8.4354,3.87573 8.09344,0 9.34735,-9.57533 h 15.50291 q -1.82387,19.26465 -25.30622,19.26465 -12.99509,0 -19.72062,-7.63747 -6.61154,-7.75145 -6.61154,-22.22844 0,-7.0675 1.82388,-12.65311 1.93786,-5.58561 5.35762,-9.46133 3.53375,-3.98972 8.5494,-6.04158 5.12964,-2.16585 11.51319,-2.16585 6.15557,0 10.82924,2.05186 4.78767,1.93786 7.97944,5.6996 3.30577,3.76173 5.01565,9.11936 1.70988,5.35762 1.70988,11.96916 z m -16.07287,-5.35763 q 0,-13.79303 -10.48727,-13.79303 -10.37327,0 -10.37327,13.79303 z"
         style="font-size:113.992px;fill:#000000;fill-opacity:1;stroke-width:0.593709"
         id="path882" /><path
         d="m 768.04734,681.43632 q -19.49264,0 -19.49264,16.30086 v 29.18195 h -15.38892 v -56.996 h 15.38892 v 8.77738 q 2.9638,-5.81359 7.06751,-8.09343 4.10371,-2.27984 12.42513,-2.27984 z"
         style="font-size:113.992px;fill:#000000;fill-opacity:1;stroke-width:0.593709"
         id="path884" /><path
         d="m 795.17737,659.43587 h -17.66876 v -14.81896 h 17.66876 z m -1.13992,67.48326 h -15.38892 v -56.996 h 15.38892 z"
         style="font-size:113.992px;fill:#000000;fill-opacity:1;stroke-width:0.593709"
         id="path886" /><path
         d="m 857.18882,709.25037 q 0,4.55968 -1.82387,8.20742 -1.82387,3.53375 -5.24363,6.04158 -3.30577,2.39383 -7.97944,3.64774 -4.55968,1.36791 -10.14529,1.36791 -11.74117,0 -17.78275,-5.01565 -6.04158,-5.01565 -6.04158,-14.249 h 15.38892 q 0,5.35762 2.27984,7.52347 2.39384,2.05186 7.63747,2.05186 3.64774,0 6.26956,-2.05186 2.62181,-2.05186 2.62181,-5.58561 0,-4.78766 -8.4354,-7.40948 -14.93296,-4.33169 -15.84489,-4.90165 -8.43541,-4.3317 -8.43541,-13.33707 0,-3.76173 1.70988,-6.95351 1.70988,-3.19177 4.78766,-5.47161 3.07779,-2.27984 7.29549,-3.53376 4.3317,-1.25391 9.46134,-1.25391 22.91239,0 22.91239,18.23872 H 840.432 q -0.22798,-4.78766 -1.93786,-6.61153 -1.70988,-1.93787 -6.49755,-1.93787 -3.41976,0 -5.47161,2.05186 -2.05186,1.93786 -2.05186,4.55968 0,3.64774 8.43541,5.92758 12.65311,3.19178 15.84489,4.78767 8.4354,4.67367 8.4354,13.90702 z"
         style="font-size:113.992px;fill:#000000;fill-opacity:1;stroke-width:0.593709"
         id="path888" /><path
         d="m 908.37116,726.34917 q -5.47161,1.93786 -11.74117,1.93786 -7.86545,0 -13.10908,-4.2177 -5.24363,-4.3317 -5.24363,-10.94323 v -33.51365 h -11.3992 v -9.68932 h 11.3992 v -8.77738 l 15.38892,-7.97944 v 16.75682 h 13.56504 v 9.68932 H 893.6662 v 29.18195 q 0,8.89138 9.00536,8.89138 3.07779,0 5.6996,-1.02593 z"
         style="font-size:113.992px;fill:#000000;fill-opacity:1;stroke-width:0.593709"
         id="path890" /><path
         d="m 970.15472,697.16722 q 0,1.25391 0,2.39383 0,1.02593 -0.11399,1.93786 h -36.81941 q 0,9.46134 2.50782,13.45106 2.62181,3.87573 8.43541,3.87573 8.09343,0 9.34734,-9.57533 h 15.50291 q -1.82387,19.26465 -25.30622,19.26465 -12.99509,0 -19.72062,-7.63747 -6.61153,-7.75145 -6.61153,-22.22844 0,-7.0675 1.82387,-12.65311 1.93786,-5.58561 5.35762,-9.46133 3.53376,-3.98972 8.5494,-6.04158 5.12964,-2.16585 11.51319,-2.16585 6.15557,0 10.82924,2.05186 4.78767,1.93786 7.97944,5.6996 3.30577,3.76173 5.01565,9.11936 1.70988,5.35762 1.70988,11.96916 z m -16.07287,-5.35763 q 0,-13.79303 -10.48726,-13.79303 -10.37327,0 -10.37327,13.79303 z"
         style="font-size:113.992px;fill:#000000;fill-opacity:1;stroke-width:0.593709"
         id="path892" /><path
         d="m 1037.5238,726.91913 h -15.3889 v -34.1976 q 0,-15.16094 -10.2593,-15.16094 -12.08316,0 -12.08316,17.55477 v 31.80377 h -15.38892 v -56.996 h 15.38892 v 7.63746 q 3.19176,-4.90165 5.58556,-6.38355 4.3317,-2.8498 12.9951,-2.8498 9.8033,0 14.705,5.81359 4.4457,5.12964 4.4457,14.02102 z"
         style="font-size:113.992px;fill:#000000;fill-opacity:1;stroke-width:0.593709"
         id="path894" /></g><g
       aria-label="Vlaamse"
       id="text906"
       style="font-weight:bold;font-size:24.3327px;line-height:1.25;font-family:'Sophia Nubian';-inkscape-font-specification:'Sophia Nubian Bold';letter-spacing:0px;display:inline;stroke-width:0.608317"><path
         d="m 137.5801,511.16463 -32.11917,84.32744 H 84.67106 L 53.719856,511.16463 h 18.68752 l 23.242602,64.82234 23.242602,-64.82234 z"
         style="font-size:116.797px;fill:#9a9a9a;fill-opacity:1;stroke-width:0.608317"
         id="path849" /><path
         d="m 163.27541,595.49207 h -15.76759 v -84.32744 h 15.76759 z"
         style="font-size:116.797px;fill:#9a9a9a;fill-opacity:1;stroke-width:0.608317"
         id="path851" /><path
         d="m 231.71834,595.49207 h -14.36603 l -1.75196,-7.00782 -7.00782,5.72305 q -4.67188,2.91992 -10.62853,2.91992 -3.97109,0 -7.5918,-1.28476 -3.62071,-1.28477 -6.42384,-3.62071 -2.80312,-2.33594 -4.43828,-5.60626 -1.63516,-3.38711 -1.63516,-7.475 0,-10.62853 7.24141,-16.11799 7.35822,-5.60626 20.55628,-5.60626 h 8.52618 q 0,-3.97109 -0.46719,-6.42383 -0.35039,-2.56953 -1.40157,-3.8543 -1.05117,-1.40157 -2.91992,-1.86875 -1.75195,-0.46719 -4.55508,-0.46719 -2.33594,0 -3.8543,0.35039 -1.51836,0.35039 -2.56954,1.28477 -0.93437,0.93437 -1.51836,2.56953 -0.58398,1.63516 -1.05117,4.20469 h -15.6508 q 0,-3.8543 1.75196,-7.12461 1.75195,-3.27032 5.02227,-5.60626 3.27031,-2.33594 7.8254,-3.62071 4.67188,-1.40156 10.51173,-1.40156 8.75977,0 15.06681,3.15352 6.42383,3.15352 8.05899,8.75977 1.28477,4.43829 1.28477,14.01564 v 10.51173 q 0,16.35158 1.98555,23.593 z m -17.51955,-29.19925 q -1.16797,-0.1168 -2.45274,-0.1168 -1.28477,0 -2.91993,0 -14.95001,0 -14.95001,12.03009 0,1.75195 0.70078,3.27032 0.81758,1.51836 1.98555,2.68633 1.28477,1.05117 2.91993,1.75195 1.63515,0.70078 3.38711,0.70078 3.03672,0 5.13907,-0.93437 2.21914,-1.05118 3.50391,-3.38712 1.40156,-2.33594 1.98554,-6.19024 0.70079,-3.97109 0.70079,-9.81094 z"
         style="font-size:116.797px;fill:#9a9a9a;fill-opacity:1;stroke-width:0.608317"
         id="path853" /><path
         d="m 297.47502,595.49207 h -14.36603 l -1.75196,-7.00782 -7.00782,5.72305 q -4.67188,2.91992 -10.62852,2.91992 -3.9711,0 -7.59181,-1.28476 -3.6207,-1.28477 -6.42383,-3.62071 -2.80313,-2.33594 -4.43829,-5.60626 -1.63516,-3.38711 -1.63516,-7.475 0,-10.62853 7.24142,-16.11799 7.35821,-5.60626 20.55627,-5.60626 h 8.52618 q 0,-3.97109 -0.46719,-6.42383 -0.35039,-2.56953 -1.40156,-3.8543 -1.05117,-1.40157 -2.91993,-1.86875 -1.75195,-0.46719 -4.55508,-0.46719 -2.33594,0 -3.8543,0.35039 -1.51836,0.35039 -2.56953,1.28477 -0.93438,0.93437 -1.51837,2.56953 -0.58398,1.63516 -1.05117,4.20469 h -15.6508 q 0,-3.8543 1.75196,-7.12461 1.75195,-3.27032 5.02227,-5.60626 3.27032,-2.33594 7.8254,-3.62071 4.67188,-1.40156 10.51173,-1.40156 8.75977,0 15.06681,3.15352 6.42384,3.15352 8.05899,8.75977 1.28477,4.43829 1.28477,14.01564 v 10.51173 q 0,16.35158 1.98555,23.593 z m -17.51955,-29.19925 q -1.16797,-0.1168 -2.45274,-0.1168 -1.28476,0 -2.91992,0 -14.95002,0 -14.95002,12.03009 0,1.75195 0.70078,3.27032 0.81758,1.51836 1.98555,2.68633 1.28477,1.05117 2.91993,1.75195 1.63516,0.70078 3.38711,0.70078 3.03672,0 5.13907,-0.93437 2.21914,-1.05118 3.50391,-3.38712 1.40156,-2.33594 1.98555,-6.19024 0.70078,-3.97109 0.70078,-9.81094 z"
         style="font-size:116.797px;fill:#9a9a9a;fill-opacity:1;stroke-width:0.608317"
         id="path855" /><path
         d="m 403.40985,595.49207 h -15.76759 v -37.37504 q 0,-5.37267 -2.80313,-9.11017 -2.80313,-3.7375 -7.24141,-3.7375 -3.62071,0 -7.12462,3.38711 -4.78868,4.55508 -4.78868,12.96447 v 33.87113 h -15.76759 v -37.37504 q 0,-5.37267 -2.68633,-9.11017 -2.68633,-3.7375 -7.12462,-3.7375 -3.6207,0 -7.24141,3.38711 -5.02227,4.55508 -5.02227,12.96447 v 33.87113 h -15.7676 v -58.3985 h 15.7676 v 8.40938 q 2.80313,-3.15352 5.60625,-6.30704 4.55509,-3.7375 12.61408,-3.7375 6.54063,0 10.74532,2.21914 3.03672,1.51836 4.90548,4.55508 1.16797,1.98555 2.33594,4.0879 1.51836,-2.10235 3.15352,-4.20469 2.45273,-2.91993 5.72305,-4.55509 4.32149,-2.10234 10.62853,-2.10234 10.16133,0 15.4172,6.65743 4.43828,5.72305 4.43828,14.95001 z"
         style="font-size:116.797px;fill:#9a9a9a;fill-opacity:1;stroke-width:0.608317"
         id="path857" /><path
         d="m 468.232,577.38853 q 0,4.67188 -1.86875,8.40938 -1.86876,3.62071 -5.37267,6.19025 -3.38711,2.45273 -8.17579,3.7375 -4.67188,1.40156 -10.39493,1.40156 -12.03009,0 -18.22033,-5.13906 -6.19024,-5.13907 -6.19024,-14.59963 h 15.76759 q 0,5.48946 2.33594,7.7086 2.45274,2.10235 7.8254,2.10235 3.73751,0 6.42384,-2.10235 2.68633,-2.10234 2.68633,-5.72305 0,-4.90547 -8.64298,-7.5918 -15.30041,-4.43829 -16.23478,-5.02228 -8.64298,-4.43828 -8.64298,-13.66524 0,-3.85431 1.75196,-7.12462 1.75195,-3.27032 4.90547,-5.60626 3.15352,-2.33594 7.47501,-3.6207 4.43828,-1.28477 9.69415,-1.28477 23.47619,0 23.47619,18.68752 h -15.76759 q -0.23359,-4.90548 -1.98555,-6.77423 -1.75195,-1.98555 -6.65743,-1.98555 -3.50391,0 -5.60625,2.10235 -2.10235,1.98555 -2.10235,4.67188 0,3.7375 8.64298,6.07344 12.96446,3.27032 16.23478,4.90548 8.64298,4.78867 8.64298,14.24923 z"
         style="font-size:116.797px;fill:#9a9a9a;fill-opacity:1;stroke-width:0.608317"
         id="path859" /><path
         d="m 534.22226,565.00805 q 0,1.28477 0,2.45274 0,1.05117 -0.1168,1.98555 h -37.72543 q 0,9.69415 2.56953,13.78204 2.68633,3.9711 8.64298,3.9711 8.29259,0 9.57735,-9.81095 h 15.8844 q -1.86876,19.73869 -25.92894,19.73869 -13.31486,0 -20.20588,-7.8254 -6.77422,-7.94219 -6.77422,-22.77541 0,-7.24141 1.86875,-12.96447 1.98555,-5.72305 5.48946,-9.69415 3.6207,-4.08789 8.75977,-6.19024 5.25587,-2.21914 11.7965,-2.21914 6.30704,0 11.09571,2.10234 4.90548,1.98555 8.17579,5.83985 3.38712,3.85431 5.13907,9.34376 1.75196,5.48946 1.75196,12.26369 z m -16.46838,-5.48946 q 0,-14.13244 -10.74533,-14.13244 -10.62852,0 -10.62852,14.13244 z"
         style="font-size:116.797px;fill:#9a9a9a;fill-opacity:1;stroke-width:0.608317"
         id="path861" /></g><g
       id="g10"
       transform="matrix(5.1211061,0,0,-5.1211061,-30.360984,1375.9362)"><g
         id="g1783"
         style="display:inline"
         transform="rotate(-12.522591,519.91574,-751.76729)"><path
           d="m 0,0 c -0.476,-0.105 -1.504,0.028 -1.75,1.14 0,0 -0.181,0.822 -0.347,1.572 C -2.263,3.461 -2,3.98 -0.838,4.237 0.319,4.493 2.449,4.964 2.996,5.085 3.54,5.205 4.497,4.963 5.179,4.158 5.708,3.539 6.129,3.082 6.54,2.53 6.949,1.978 6.768,1.496 6.09,1.346 5.408,1.195 0.476,0.104 0,0"
           style="display:inline;fill:#c09632;fill-opacity:1;fill-rule:nonzero;stroke:#c09632;stroke-opacity:1"
           id="path42"
           transform="translate(14.740199,12.3828)" /><path
           d="m 0,0 c 0,0 -1.666,7.538 -2.017,9.124 -0.349,1.587 0.584,2.625 1.858,2.907 1.266,0.281 2.553,-0.266 2.903,-1.854 C 3.096,8.59 4.762,1.054 4.762,1.054 Z"
           style="display:inline;fill:none;stroke:#c09632;stroke-width:1.194;stroke-linecap:round;stroke-linejoin:round;stroke-miterlimit:4;stroke-dasharray:none;stroke-opacity:1"
           id="path34"
           transform="translate(7.6738036,4.4434003)" /><path
           d="M 0,0 C -0.329,1.489 0.613,2.965 2.102,3.294 3.591,3.623 5.069,2.683 5.399,1.193 5.729,-0.296 4.783,-1.771 3.293,-2.102 1.806,-2.431 0.329,-1.49 0,0 Z m 22.059,4.876 c -0.33,1.489 0.61,2.964 2.1,3.293 1.489,0.329 2.966,-0.611 3.295,-2.101 0.329,-1.489 -0.613,-2.964 -2.102,-3.294 -1.491,-0.33 -2.964,0.612 -3.293,2.102 z"
           style="fill:none;stroke:#c09632;stroke-width:2.389;stroke-linecap:butt;stroke-linejoin:miter;stroke-miterlimit:4;stroke-dasharray:none;stroke-opacity:1"
           id="path30" /><path
           d="m 0,0 -8.395,-1.855 c 0,0 -2.649,11.989 -3.386,15.321 -0.737,3.333 -1.131,6.741 4.047,7.886 5.87,1.296 19.873,4.391 25.426,5.62 5.557,1.227 14.999,-4.538 10.228,-5.593 -2.866,-0.635 -7.326,-1.588 -7.326,-1.588 l 5.932,-5.679 5.217,-1.013 1.28,-5.8 -5.035,-1.113 M 22.194,4.905 6.131,1.354"
           style="display:inline;fill:none;stroke:#c09632;stroke-width:2.389;stroke-linecap:round;stroke-linejoin:round;stroke-miterlimit:4;stroke-dasharray:none;stroke-opacity:1"
           id="path38"
           transform="translate(-0.3505966,-0.00289985)" /></g><g
         id="g1836"
         style="display:inline"
         transform="rotate(-7.5075444,895.69767,-945.95803)"><path
           d="m 0,0 c 0.163,-1.203 -0.678,-2.31 -1.875,-2.473 l -5.798,-0.786 c -1.203,-0.163 -2.307,0.681 -2.471,1.883 -0.163,1.198 0.678,2.305 1.881,2.468 l 5.797,0.787 C -1.268,2.041 -0.162,1.197 0,0"
           style="fill:#489ea5;fill-opacity:1;fill-rule:nonzero;stroke:#489ea5;stroke-opacity:1"
           id="path50" /><path
           d="m 0,0 -1.256,9.261 c -0.218,1.609 0.799,2.569 2.092,2.745 1.288,0.175 2.524,-0.48 2.742,-2.09 L 4.834,0.655 Z"
           style="display:inline;fill:none;stroke:#489ea5;stroke-width:1.194;stroke-linecap:round;stroke-linejoin:round;stroke-miterlimit:4;stroke-dasharray:none;stroke-opacity:1"
           id="path58"
           transform="translate(7.8203024,-10.5039)" /><path
           d="M 0,0 C -0.205,1.513 0.853,2.902 2.365,3.108 3.878,3.313 5.271,2.256 5.476,0.743 5.681,-0.77 4.62,-2.16 3.107,-2.365 1.595,-2.57 0.205,-1.513 0,0 Z"
           style="display:inline;fill:none;stroke:#489ea5;stroke-width:2.389;stroke-linecap:butt;stroke-linejoin:miter;stroke-miterlimit:4;stroke-dasharray:none;stroke-opacity:1"
           id="path54"
           transform="translate(-0.35259776,-14.3203)" /><path
           d="m 0,0 -5.838,-0.791 c -1.61,-0.219 -4.866,3.204 -5.611,5.07 -0.745,1.869 -1.28,3.983 -1.098,6.906 0.205,3.303 0.421,4.148 1.567,6.598 1.142,2.453 4.215,4.022 6.632,4.35 2.415,0.328 12.025,1.964 15.036,1.55 3.007,-0.412 5.237,-3.555 5.542,-5.808 l 1.471,-10.845 2.813,0.382 -0.37,2.671 2.646,0.364 1.397,-1.621 2.338,-0.339 c 0,0 1.312,-4.711 -1.103,-5.039 L 6.081,0.825 m 13.044,1.77 0.381,-2.808"
           style="display:inline;fill:none;stroke:#489ea5;stroke-width:2.389;stroke-linecap:round;stroke-linejoin:round;stroke-miterlimit:4;stroke-dasharray:none;stroke-opacity:1"
           id="path46"
           transform="translate(-0.80469778,-14.3096)" /></g><g
         id="g1815"
         transform="translate(85.89459,94.915974)"><path
           d="M 0,0 -27.541,5.786 M 0,-2.555 h -28.449"
           style="display:inline;fill:none;stroke:#8e005e;stroke-width:1.18;stroke-linecap:round;stroke-linejoin:round;stroke-miterlimit:4;stroke-dasharray:none;stroke-opacity:1"
           id="path70"
           transform="translate(12.195299,8.5712998)" /><path
           d="m 0,0 c 0,1.507 1.222,2.729 2.729,2.729 1.506,0 2.73,-1.222 2.73,-2.729 0,-1.506 -1.224,-2.728 -2.73,-2.728 C 1.222,-2.728 0,-1.506 0,0 Z"
           style="display:inline;fill:none;stroke:#8e005e;stroke-width:2.359;stroke-linecap:butt;stroke-linejoin:miter;stroke-miterlimit:4;stroke-dasharray:none;stroke-opacity:1"
           id="path66"
           transform="translate(-5.6231002,-0.07229963)" /><path
           d="m 0,0 h 19.276 c 2.406,0 1.747,4.785 1.747,4.785 L 18.781,5.426 17.628,7.198 14.991,7.193 14.999,4.53 h -2.804 v 4.041 c 0,2.244 -1.766,5.617 -4.651,6.422 -2.895,0.802 -12.517,3.641 -14.923,3.641 -4.35,0 -6.525,-2.03 -7.967,-4.277 l 2.475,-0.52 1.931,-4.281 -5.761,-3.849 C -16.218,3.781 -13.484,0 -11.883,0 h 5.82 m 19.064,0 v -2.8"
           style="fill:none;stroke:#8e005e;stroke-width:2.359;stroke-linecap:round;stroke-linejoin:round;stroke-miterlimit:4;stroke-dasharray:none;stroke-opacity:1"
           id="path62" /></g><g
         id="g16"
         transform="rotate(7.3051066,-879.7581,311.08826)"
         style="display:inline"><path
           d="m 0,0 11.011,-24.031 m -23.206,3.081 11.206,13.212 7.498,-15.62 z"
           style="display:inline;fill:none;stroke:#c09632;stroke-width:1.194;stroke-linecap:round;stroke-linejoin:round;stroke-miterlimit:4;stroke-dasharray:none;stroke-opacity:1"
           id="path18" /><path
           d="m 0,0 -40.967,5.271 17.262,20.723 12.407,-1.597 z"
           style="display:inline;fill:none;stroke:#c09632;stroke-width:2.389;stroke-linecap:round;stroke-linejoin:round;stroke-miterlimit:4;stroke-dasharray:none;stroke-opacity:1"
           id="path14"
           transform="translate(23.434,-25.6299)" /></g></g></g><g
     id="layer4"
     style="display:inline"
     transform="translate(-53.719856,-32.621055)"><g
       id="layer6"
       style="display:inline"><path
         d="m 936.64121,404.11948 -0.50384,1.41867 c 14.21707,67.972 7.23515,111.70933 2.46059,130.34133 52.61621,-43.12934 86.19144,-108.63467 86.19144,-181.97733 0,-13.89333 -1.2703,-27.47467 -3.5749,-40.708 -17.9906,29.476 -43.30301,63.52666 -84.57329,90.92533"
         style="display:inline;fill:#9b9a9a;fill-opacity:1;fill-rule:nonzero;stroke:none;stroke-width:1.33313"
         id="path110" /><path
         d="m 873.76304,430.44495 53.32934,-26.59334 c -54.32,-206.85865 -128.23866,-266.62799 -168.58,-283.04266 -115.15466,15.23333 -204.05599,113.72533 -204.05599,233.09333 0,33.644 7.12,65.61067 19.85466,94.55333 71.87334,23.45867 169.84133,27.84667 299.45199,-18.01066"
         style="display:inline;fill:#9b9a9a;fill-opacity:1;fill-rule:nonzero;stroke:none;stroke-width:1.33333"
         id="path114" /><path
         d="m 913.51425,553.79134 c 11.19466,-28.59599 17.20399,-72.49733 18.24933,-144.66933 0,0 -122.38534,117.17733 -342.75199,67.5 41.35066,67.44001 115.71999,112.45333 200.62266,112.45333 45.47466,0 87.90532,-12.93466 123.88,-35.284"
         style="display:inline;fill:#f9b233;fill-opacity:1;fill-rule:nonzero;stroke:none;stroke-width:1.33333"
         id="path118" /><path
         d="M 1013.7251,282.46642 C 986.03849,195.49575 909.19852,130.52775 815.82518,120.17575 c 91.16534,105.43333 117.016,275.03733 117.016,275.03733 0,0 85.29462,-64.94667 80.88392,-112.74666"
         style="display:inline;fill:#f9b233;fill-opacity:1;fill-rule:nonzero;stroke:none;stroke-width:1.33333"
         id="path122" /></g><g
       id="layer5"
       style="display:inline"><path
         d="M 805.65665,446.87079 C 689.42042,474.21751 544.29196,461.87188 491.83173,385.33136 l -9.49753,6.47917 c 55.39073,80.82939 205.91401,94.48282 325.96258,66.22701 C 913.33179,433.329 1025.2481,366.9199 1040.3589,256.96948 1026.022,361.17039 906.97923,423.00487 805.65665,446.87079"
         style="display:inline;fill:#000000;fill-opacity:1;fill-rule:nonzero;stroke:none;stroke-width:1.33055"
         id="path130" /><path
         d="m 514.13852,384.67681 -32.376,-6.65333 -8.20267,30.42667 9.464,1.98133 5.332,-19.328 22.85867,4.776 z"
         style="display:inline;fill:#000000;fill-opacity:1;fill-rule:nonzero;stroke:none;stroke-width:1.42939"
         id="path138" /><path
         d="M 693.67746,48.830673 C 785.58947,59.22203 872.6497,188.28757 907.85151,311.22907 946.2982,445.61764 931.45577,565.51916 862.76038,620.23987 935.70987,561.64935 957.96905,447.40867 918.19192,308.40679 881.94586,181.78249 791.69921,48.304663 694.92381,37.346556 Z"
         style="display:inline;fill:#000000;fill-opacity:1;fill-rule:nonzero;stroke:none;stroke-width:1.31779"
         id="path126" /><path
         style="display:inline;fill:#000000;fill-opacity:1;stroke:#000000;stroke-width:1px;stroke-linecap:butt;stroke-linejoin:miter;stroke-opacity:1"
         d="m 682.18612,37.606556 11.75066,19.879999 10.96934,-1.3 -8.324,-14.073333 26.53733,-3.125333 -3.46933,-5.832 z"
         id="path2598" /></g></g></svg>
